<svg height="512" viewBox="0 0 512 512" width="512" xmlns="http://www.w3.org/2000/svg"><g id="Outline"><path d="m264 183.999h-16v240.001h-48v16h48v16h16v-16h48v-16h-48z"/><path d="m256 96a24 24 0 1 0 -24-24 24.027 24.027 0 0 0 24 24zm0-32a8 8 0 1 1 -8 8 8.009 8.009 0 0 1 8-8z"/><path d="m248 152h16v16h-16z"/><path d="m474.684 274.49-29.562-24.636a8 8 0 0 0 -10.244 0l-29.562 24.636a59.084 59.084 0 0 0 -21.316 45.51 8 8 0 0 0 8 8h23.472a60.136 60.136 0 0 1 -21.172 38.34 76.335 76.335 0 0 1 -48.782 17.66h-34.141l-15.988-197.188 82.411-19.012a8 8 0 0 0 6.2-7.8v-24a8 8 0 0 0 -8-8h-85.379l-.916-11.291a55.992 55.992 0 0 0 -31.529-100.667 56 56 0 0 0 -35.882 100.676l-.915 11.282h-85.379a8 8 0 0 0 -8 8v24a8 8 0 0 0 6.2 7.795l82.409 19.017-15.986 197.188h-34.141a76.335 76.335 0 0 1 -48.777-17.66 60.136 60.136 0 0 1 -21.177-38.34h23.472a8 8 0 0 0 8-8 59.084 59.084 0 0 0 -21.316-45.51l-29.562-24.636a8 8 0 0 0 -10.244 0l-29.562 24.636a59.084 59.084 0 0 0 -21.316 45.51 8 8 0 0 0 8 8h24v4.286a133.546 133.546 0 0 0 24.968 77.99 135.109 135.109 0 0 0 68.883 50.067l111.74 35.285a7.986 7.986 0 0 0 4.818 0l111.74-35.286a135.1 135.1 0 0 0 68.883-50.066 133.546 133.546 0 0 0 24.968-77.99v-4.286h24a8 8 0 0 0 8-8 59.084 59.084 0 0 0 -21.316-45.51zm-18.684 37.51a8 8 0 0 0 -8 8v12.286a117.634 117.634 0 0 1 -21.993 68.7 119.012 119.012 0 0 1 -60.676 44.1l-109.331 34.525-109.331-34.526a119.012 119.012 0 0 1 -60.676-44.1 117.634 117.634 0 0 1 -21.993-68.699v-12.286a8 8 0 0 0 -8-8h-23.259a43.111 43.111 0 0 1 14.818-25.219l24.441-20.367 24.441 20.368a43.106 43.106 0 0 1 14.818 25.218h-23.259a8 8 0 0 0 -8 8 76.118 76.118 0 0 0 27.461 58.632 92.372 92.372 0 0 0 59.021 21.368h41.518a8 8 0 0 0 7.974-7.354l17.142-211.428a8 8 0 0 0 -6.175-8.442l-82.941-19.14v-9.636h84.757a8 8 0 0 0 7.973-7.354l1.885-23.249a8 8 0 0 0 -3.74-7.435 40 40 0 1 1 42.25 0 8 8 0 0 0 -3.741 7.435l1.886 23.249a8 8 0 0 0 7.973 7.354h84.757v9.636l-82.942 19.14a8 8 0 0 0 -6.175 8.442l17.143 211.428a8 8 0 0 0 7.974 7.354h41.518a92.372 92.372 0 0 0 59.021-21.368 76.118 76.118 0 0 0 27.461-58.632 8 8 0 0 0 -8-8h-23.259a43.111 43.111 0 0 1 14.818-25.219l24.441-20.367 24.441 20.368a43.106 43.106 0 0 1 14.818 25.218z"/></g></svg>