<?xml version="1.0" encoding="UTF-8" standalone="no"?>
<svg
   xmlns:dc="http://purl.org/dc/elements/1.1/"
   xmlns:cc="http://creativecommons.org/ns#"
   xmlns:rdf="http://www.w3.org/1999/02/22-rdf-syntax-ns#"
   xmlns:svg="http://www.w3.org/2000/svg"
   xmlns="http://www.w3.org/2000/svg"
   xmlns:sodipodi="http://sodipodi.sourceforge.net/DTD/sodipodi-0.dtd"
   xmlns:inkscape="http://www.inkscape.org/namespaces/inkscape"
   version="1.1"
   id="svg2"
   xml:space="preserve"
   width="258.66666"
   height="258.66666"
   viewBox="0 0 258.66666 258.66666"
   sodipodi:docname="Quick.eps"><metadata
     id="metadata8"><rdf:RDF><cc:Work
         rdf:about=""><dc:format>image/svg+xml</dc:format><dc:type
           rdf:resource="http://purl.org/dc/dcmitype/StillImage" /></cc:Work></rdf:RDF></metadata><defs
     id="defs6" /><sodipodi:namedview
     pagecolor="#ffffff"
     bordercolor="#666666"
     borderopacity="1"
     objecttolerance="10"
     gridtolerance="10"
     guidetolerance="10"
     inkscape:pageopacity="0"
     inkscape:pageshadow="2"
     inkscape:window-width="640"
     inkscape:window-height="480"
     id="namedview4" /><g
     id="g10"
     inkscape:groupmode="layer"
     inkscape:label="ink_ext_XXXXXX"
     transform="matrix(1.3333333,0,0,-1.3333333,0,258.66667)"><g
       id="g12"
       transform="scale(0.1)"><path
         d="M 2.59766,1933.23 H 1930.16 V 5.66797 H 2.59766 V 1933.23"
         style="fill:#ffffff;fill-opacity:1;fill-rule:evenodd;stroke:none"
         id="path14" /><path
         d="m 1626.38,668.684 v 0 c -6.77,0 15.56,0.683 22.69,3.246 v 0 c 15.14,2.91 31.37,22.437 32.77,33.633 v 0 c 0.83,6.585 5.26,14.437 -2.36,35.761 v 0 l -174.96,489.686 c -2.77,9.22 -10.57,21.69 -16.67,26.71 v 0 c -2.14,2.24 -12.94,8.6 -16.39,9.12 v -0.13 c -4.1,2.75 -24.06,3.51 -24.06,3.51 l -0.11,577.97 H 485.352 v -578.14 c 0,0 -19.965,-0.75 -24.063,-3.5 v 0.13 c -3.445,-0.52 -14.242,-6.89 -16.387,-9.12 v 0 c -6.101,-5.02 -13.898,-17.49 -16.672,-26.72 L 253.277,741.16 v 0 c -7.625,-21.324 -3.195,-29.183 -2.359,-35.758 v 0 c 1.398,-11.203 17.621,-30.73 32.766,-33.632 v 0 c 7.136,-2.563 29.812,-2.899 23.043,-2.899 v 0 l 178.625,-0.027 V 90.707 h 961.938 v 578.137 l 179.09,-0.16"
         style="fill:#ffffff;fill-opacity:1;fill-rule:evenodd;stroke:none"
         id="path16" /><path
         d="m 965.18,691.773 634.66,0.012 v 0 c -6.43,0 23.54,-0.359 33.88,1.153 v 0 c 13.28,2.546 23.33,14.398 23.33,28.394 v 0 c 0,8.582 -2.05,12.891 -7.6,28.414 v 0 l -166.87,467.924 c -2.78,7.83 -6.03,15.05 -11.08,19.72 v 0 c -4.38,4.59 -10.46,7.78 -17.08,8.77 v -0.12 c -4.46,1.35 -26.3,1.04 -32.3,1.04 H 965.18 508.238 c -6,0 -27.843,0.31 -32.297,-1.04 v 0.12 c -6.625,-0.99 -12.703,-4.18 -17.089,-8.77 v 0 c -5.047,-4.67 -8.301,-11.89 -11.079,-19.72 L 280.902,749.746 v 0 c -5.547,-15.523 -7.597,-19.832 -7.597,-28.414 v 0 c 0,-13.996 10.047,-25.848 23.324,-28.394 v 0 c 6.437,-1.512 40.652,-1.153 33.879,-1.153 v 0 l 634.672,-0.012"
         style="fill:#ed192d;fill-opacity:1;fill-rule:evenodd;stroke:none"
         id="path18" /><path
         d="M 1424.22,113.648 V 668.969 H 508.238 V 113.648 h 915.982"
         style="fill:#ed192d;fill-opacity:1;fill-rule:evenodd;stroke:none"
         id="path20" /><path
         d="m 642.309,1241.23 c 34.312,-139.88 155.531,-200.58 198.879,-212.46 v -0.06 c -25.77,0 -143.868,-36.769 -140.489,-69.921 0,-4.219 1.176,-6.941 4.86,-13.937 5.023,-9.579 53.254,-77.047 59.875,-83.981 v 0 l 4.527,0.949 v 0 c 33.965,70.512 86.426,76.297 116.547,76.278 v 0 c 116.312,0.101 262.042,-109.09 379.172,-109.09 v 0 c 27.33,0.125 38.34,8.539 46.87,15.582 29.52,24.336 52.46,123.332 58.06,159.25 v 0 l -3.47,2.55 v 0 c -14.99,-8.781 -59.5,-27.605 -105.76,-27.574 -80.49,0.047 -169.17,28.064 -198.13,36.224 v 0 c 53.29,14.63 185.05,71.93 221.24,226.19 H 642.309"
         style="fill:#ffffff;fill-opacity:1;fill-rule:evenodd;stroke:none"
         id="path22" /><path
         d="m 1012.31,501.504 c 15.53,0 28.12,12.539 28.12,27.996 0,15.457 -12.59,27.988 -28.12,27.988 -15.533,0 -28.126,-12.531 -28.126,-27.988 0,-15.457 12.593,-27.996 28.126,-27.996"
         style="fill:#ffffff;fill-opacity:1;fill-rule:evenodd;stroke:none"
         id="path24" /><path
         d="M 1036.74,342.563 V 479.945 H 987.609 V 342.563 h 49.131"
         style="fill:#ffffff;fill-opacity:1;fill-rule:evenodd;stroke:none"
         id="path26" /><path
         d="m 1272.97,428.422 -0.02,123.605 h -49.39 V 342.555 h 49.39 l 0.02,56.992 v 0 l 46.61,-56.981 h 60.69 l -59.76,73.094 v 0 l 48.56,64.297 h -57.17 l -38.93,-51.535 v 0"
         style="fill:#ffffff;fill-opacity:1;fill-rule:evenodd;stroke:none"
         id="path28" /><path
         d="m 1091.73,356.887 c 12.39,-11.383 30.43,-19.84 55.37,-19.797 2.61,0.004 27.81,-0.11 48.22,11.437 v 0 l -0.01,39.141 v 0 c -3.77,-2.699 -25.54,-11.355 -40.02,-11.355 -19.79,0 -35.82,12.593 -35.82,35.492 0,22.91 19.79,34.687 37.79,34.687 17.99,0 29.41,-7.953 36.44,-11.879 v 0 40.645 c -16.69,8.453 -37.62,10.16 -47.59,10.164 -15.22,0.016 -41.15,-6.32 -58.9,-25.66 v 0 c -12.19,-13.465 -19.44,-31.5 -18.92,-51.086 0.53,-20.469 9.55,-38.863 23.44,-51.789 v 0"
         style="fill:#ffffff;fill-opacity:1;fill-rule:evenodd;stroke:none"
         id="path30" /><path
         d="m 854.879,408.613 c -0.043,-11.519 -0.258,-30.144 17.687,-30.156 10.852,-0.008 20.7,8.656 24.911,12.727 v 4.316 84.336 h 49.668 V 342.461 h -49.668 v 14.394 0 c -13.145,-12.808 -24.954,-19.261 -40.414,-19.257 -18.641,-0.055 -51.688,7.922 -51.586,61.824 v 80.414 h 49.402 v -71.223"
         style="fill:#ffffff;fill-opacity:1;fill-rule:evenodd;stroke:none"
         id="path32" /><path
         d="m 1424.22,1269.88 v 555.33 H 508.238 v -555.33 h 915.982"
         style="fill:#ed192d;fill-opacity:1;fill-rule:evenodd;stroke:none"
         id="path34" /><path
         d="m 1284.49,1241.23 c 5.99,25.53 9.36,53.71 9.33,84.81 -0.26,223.05 -167.27,329.76 -332.168,327.41 -172.457,2.45 -326.238,-102.29 -328.476,-330.23 -0.297,-29.93 3.058,-57.2 9.133,-81.99 h 642.181"
         style="fill:#ffffff;fill-opacity:1;fill-rule:evenodd;stroke:none"
         id="path36" /><path
         d="m 965.809,1565.5 c 104.471,-0.08 142.011,-117.71 142.481,-232.5 0.48,-118.05 -29.52,-247.91 -146.638,-247.37 -101.203,0.47 -142.855,114.85 -143.136,239.46 -0.211,96.05 20.8,240.51 147.293,240.41"
         style="fill:#ed192d;fill-opacity:1;fill-rule:evenodd;stroke:none"
         id="path38" /><path
         d="m 783.309,316.91 c -3.395,-4.246 -22.352,-27.258 -36.637,-27.258 v 0 c -14.57,0.09 -74.902,39.77 -78.07,41.008 v 0 c -40.442,-4.664 -106.403,31.649 -106.317,103.516 0.07,61.176 39.86,108.344 105.809,108.371 82.437,0.035 109.199,-64.457 106.722,-109.504 -3.117,-56.602 -39.957,-82.102 -49.753,-88.129 9.019,-6.844 44.683,-24.969 58.246,-28.004 v 0"
         style="fill:#ffffff;fill-opacity:1;fill-rule:evenodd;stroke:none"
         id="path40" /><path
         d="m 668.563,497.773 c 40.539,-0.21 52.441,-35.179 52.441,-62.859 0,-26.441 -16.184,-60.976 -52.883,-60.976 -36.715,0 -51.652,28.308 -51.691,62.218 -0.035,35.309 18.222,61.789 52.133,61.617"
         style="fill:#ed192d;fill-opacity:1;fill-rule:evenodd;stroke:none"
         id="path42" /></g></g></svg>
